<?xml version="1.0" standalone="no"?>
<!DOCTYPE svg PUBLIC "-//W3C//DTD SVG 20010904//EN"
 "http://www.w3.org/TR/2001/REC-SVG-20010904/DTD/svg10.dtd">
<svg version="1.0" xmlns="http://www.w3.org/2000/svg"
 width="200.000000pt" height="200.000000pt" viewBox="0 0 200.000000 200.000000"
 preserveAspectRatio="xMidYMid meet">
<metadata>
Created by potrace 1.14, written by Peter Selinger 2001-2017
</metadata>
<g transform="translate(0.000000,200.000000) scale(0.100000,-0.100000)"
fill="#000000" stroke="none">
<path d="M888 1681 c-72 -24 -117 -52 -162 -101 -102 -113 -129 -276 -67 -415
28 -63 110 -146 178 -181 53 -27 67 -29 163 -29 96 0 110 2 163 29 149 76 235
241 207 398 -24 130 -115 245 -228 289 -79 30 -182 34 -254 10z m199 -46 c195
-58 291 -272 203 -452 -120 -244 -460 -244 -580 1 -69 139 -24 315 101 402 86
59 183 77 276 49z"/>
<path d="M803 1503 c-10 -3 -13 -45 -13 -159 l0 -154 210 0 210 0 0 154 c0
131 -2 155 -16 160 -19 7 -373 7 -391 -1z m357 -158 l0 -105 -160 0 -160 0 0
105 0 105 160 0 160 0 0 -105z"/>
<path d="M995 1368 c-9 -34 -19 -68 -22 -75 -3 -7 -1 -13 4 -13 8 0 24 45 49
133 3 9 1 17 -4 17 -5 0 -17 -28 -27 -62z"/>
<path d="M924 1382 l-22 -27 24 -30 c13 -16 26 -26 30 -22 4 4 0 15 -9 25 -21
23 -21 36 -2 52 16 13 20 30 8 29 -5 0 -18 -12 -29 -27z"/>
<path d="M1040 1401 c0 -5 7 -14 15 -21 19 -16 19 -29 -2 -52 -9 -10 -13 -21
-9 -25 4 -4 17 6 30 22 l24 30 -22 27 c-21 27 -36 35 -36 19z"/>
<path d="M900 1130 c0 -19 7 -20 100 -20 93 0 100 1 100 20 0 19 -7 20 -100
20 -93 0 -100 -1 -100 -20z"/>
<path d="M132 824 c-20 -14 -22 -24 -22 -103 0 -109 6 -116 99 -116 l66 0 0
30 c0 29 -2 30 -47 33 l-48 3 0 48 c0 54 8 61 66 61 31 0 34 3 34 30 l0 30
-63 0 c-40 0 -70 -5 -85 -16z"/>
<path d="M338 793 c-15 -34 -22 -69 -22 -118 l-1 -70 33 -3 c30 -3 32 -1 32
27 0 28 3 31 29 31 25 0 30 -4 33 -27 3 -25 7 -28 38 -28 l35 0 2 50 c2 32 -5
73 -20 115 l-23 65 -57 3 -57 3 -22 -48z m92 -55 c0 -11 -8 -18 -20 -18 -23 0
-25 12 -9 42 9 17 13 18 20 7 5 -8 9 -22 9 -31z"/>
<path d="M554 827 c-2 -7 -3 -60 -2 -118 l3 -104 35 0 c33 0 35 2 38 38 3 35
6 38 30 35 23 -3 27 -8 30 -40 3 -36 5 -38 38 -38 l34 0 0 53 c0 29 -5 58 -12
65 -7 7 -11 30 -9 51 4 58 -15 71 -105 71 -53 0 -76 -4 -80 -13z m111 -67 c0
-8 -8 -16 -17 -18 -13 -2 -18 3 -18 18 0 15 5 20 18 18 9 -2 17 -10 17 -18z"/>
<path d="M800 720 l0 -120 35 0 c34 0 35 1 35 40 0 38 2 40 29 40 27 0 30 -3
33 -37 3 -36 5 -38 38 -38 l35 0 0 54 c-1 34 -6 57 -15 65 -10 7 -14 25 -12
51 5 54 -14 65 -105 65 l-73 0 0 -120z m110 40 c0 -13 -7 -20 -20 -20 -13 0
-20 7 -20 20 0 13 7 20 20 20 13 0 20 -7 20 -20z"/>
<path d="M1040 810 c0 -23 4 -30 20 -30 18 0 20 -7 20 -55 0 -48 -2 -55 -20
-55 -16 0 -20 -7 -20 -35 l0 -36 78 3 c76 3 77 3 80 31 3 22 -1 30 -17 34 -18
5 -21 13 -21 59 0 47 2 54 20 54 16 0 20 7 20 30 l0 30 -80 0 -80 0 0 -30z"/>
<path d="M1262 824 c-20 -14 -22 -24 -22 -103 0 -109 6 -116 99 -116 l66 0 0
30 c0 29 -2 30 -48 33 l-48 3 3 52 3 52 48 3 c45 3 47 5 47 33 l0 29 -63 0
c-40 0 -70 -5 -85 -16z"/>
<path d="M1461 776 c-15 -43 -21 -80 -19 -117 3 -53 4 -54 36 -57 30 -3 32 -1
32 27 0 28 3 31 29 31 25 0 30 -4 33 -27 2 -23 8 -29 36 -31 l32 -3 0 65 c0
42 -8 85 -21 121 l-20 55 -58 0 -57 0 -23 -64z m99 -38 c0 -11 -8 -18 -20 -18
-23 0 -25 12 -9 42 9 17 13 18 20 7 5 -8 9 -22 9 -31z"/>
<path d="M1684 827 c-2 -7 -3 -60 -2 -118 l3 -104 35 0 35 0 5 54 c5 53 5 53
24 33 10 -12 21 -36 25 -54 6 -30 10 -33 41 -33 l35 0 0 115 0 115 -37 3 c-38
3 -38 3 -38 -34 l0 -38 -38 37 c-38 37 -78 48 -88 24z"/>
</g>
</svg>
